# xmcd
#
# Track frame offsets:
#	150
#	12635
#	28878
#	43331
#	66551
#	87622
#	100986
#	118829
#	129330
#	141253
#	154696
#	176705
#	205718
#
# Disc length: 3190 seconds
#
# Revision: 0
# Processed by: cddbd v1.5.2PL0 Copyright (c) Steve Scherf et al.
# Submitted via: audiograbber 1.83.01
#
DISCID=c60c740d
DTITLE=Alvin Lee - The Anthology [Volume2]-CD2
DYEAR=2008
DGENRE=
TTITLE0=Alvin Lee\nAlvin Lee\nAlvin Lee - Time And Space
TTITLE1=Alvin Lee - Talk Don't Bother Me
TTITLE2=Alvin Lee - Ride On Cowboy
TTITLE3=Alvin Lee - Can't Stop
TTITLE4=Alvin Lee - Getting Nowhere Fast
TTITLE5=Alvin Lee - All Life's Trials
TTITLE6=Alvin Lee - Wake Up Moma
TTITLE7=Alvin Lee - The Darkest Night
TTITLE8=Alvin Lee - It's Alright Now
TTITLE9=Alvin Lee - Carry My Load
TTITLE10=Alvin Lee - Got To Keep Moving
TTITLE11=Alvin Lee - Somebody Callin' Me
TTITLE12=Alvin Lee - The Bluest Blues
EXTD=
EXTT0=
EXTT1=
EXTT2=
EXTT3=
EXTT4=
EXTT5=
EXTT6=
EXTT7=
EXTT8=
EXTT9=
EXTT10=
EXTT11=
EXTT12=
PLAYORDER=
